<svg xmlns="http://www.w3.org/2000/svg" viewBox="0 0 520 520" width="520" height="520" role="img" aria-label="Crown and laurel">
  <defs><radialGradient id="bg" cx="50%" cy="38%" r="76%"><stop offset="0%" stop-color="#231f12"/><stop offset="58%" stop-color="#0b0d12"/><stop offset="100%" stop-color="#07080b"/></radialGradient>
  <linearGradient id="sheen" x1="0" y1="0" x2="0.7" y2="1"><stop offset="0%" stop-color="#fff" stop-opacity=".10"/><stop offset="48%" stop-color="#fff" stop-opacity="0"/><stop offset="100%" stop-color="#fff" stop-opacity=".04"/></linearGradient></defs>
  <rect width="520" height="520" fill="url(#bg)"/>
  <g opacity=".18" stroke="#fff" stroke-opacity=".5" stroke-width=".5"><line x1="0" y1="52" x2="520" y2="52"/><line x1="52" y1="0" x2="52" y2="520"/><line x1="0" y1="104" x2="520" y2="104"/><line x1="104" y1="0" x2="104" y2="520"/><line x1="0" y1="156" x2="520" y2="156"/><line x1="156" y1="0" x2="156" y2="520"/><line x1="0" y1="208" x2="520" y2="208"/><line x1="208" y1="0" x2="208" y2="520"/><line x1="0" y1="260" x2="520" y2="260"/><line x1="260" y1="0" x2="260" y2="520"/><line x1="0" y1="312" x2="520" y2="312"/><line x1="312" y1="0" x2="312" y2="520"/><line x1="0" y1="364" x2="520" y2="364"/><line x1="364" y1="0" x2="364" y2="520"/><line x1="0" y1="416" x2="520" y2="416"/><line x1="416" y1="0" x2="416" y2="520"/><line x1="0" y1="468" x2="520" y2="468"/><line x1="468" y1="0" x2="468" y2="520"/></g>
  <circle cx="260" cy="260" r="232" fill="none" stroke="#d8dee6" stroke-width="1" opacity="0.3"/><circle cx="260" cy="260" r="224" fill="none" stroke="#d8dee6" stroke-width="2.2" opacity="0.75"/><g opacity="0.22"><line x1="260" y1="28" x2="260" y2="16" stroke="#d8dee6" stroke-width="1"/><line x1="280.2" y1="28.9" x2="281.3" y2="16.9" stroke="#d8dee6" stroke-width="1"/><line x1="300.3" y1="31.5" x2="302.4" y2="19.7" stroke="#d8dee6" stroke-width="1"/><line x1="320" y1="35.9" x2="323.2" y2="24.3" stroke="#d8dee6" stroke-width="1"/><line x1="339.3" y1="42" x2="343.5" y2="30.7" stroke="#d8dee6" stroke-width="1"/><line x1="358" y1="49.7" x2="363.1" y2="38.9" stroke="#d8dee6" stroke-width="1"/><line x1="376" y1="59.1" x2="382" y2="48.7" stroke="#d8dee6" stroke-width="1"/><line x1="393.1" y1="70" x2="400" y2="60.1" stroke="#d8dee6" stroke-width="1"/><line x1="409.1" y1="82.3" x2="416.8" y2="73.1" stroke="#d8dee6" stroke-width="1"/><line x1="424" y1="96" x2="432.5" y2="87.5" stroke="#d8dee6" stroke-width="1"/><line x1="437.7" y1="110.9" x2="446.9" y2="103.2" stroke="#d8dee6" stroke-width="1"/><line x1="450" y1="126.9" x2="459.9" y2="120" stroke="#d8dee6" stroke-width="1"/><line x1="460.9" y1="144" x2="471.3" y2="138" stroke="#d8dee6" stroke-width="1"/><line x1="470.3" y1="162" x2="481.1" y2="156.9" stroke="#d8dee6" stroke-width="1"/><line x1="478" y1="180.7" x2="489.3" y2="176.5" stroke="#d8dee6" stroke-width="1"/><line x1="484.1" y1="200" x2="495.7" y2="196.8" stroke="#d8dee6" stroke-width="1"/><line x1="488.5" y1="219.7" x2="500.3" y2="217.6" stroke="#d8dee6" stroke-width="1"/><line x1="491.1" y1="239.8" x2="503.1" y2="238.7" stroke="#d8dee6" stroke-width="1"/><line x1="492" y1="260" x2="504" y2="260" stroke="#d8dee6" stroke-width="1"/><line x1="491.1" y1="280.2" x2="503.1" y2="281.3" stroke="#d8dee6" stroke-width="1"/><line x1="488.5" y1="300.3" x2="500.3" y2="302.4" stroke="#d8dee6" stroke-width="1"/><line x1="484.1" y1="320" x2="495.7" y2="323.2" stroke="#d8dee6" stroke-width="1"/><line x1="478" y1="339.3" x2="489.3" y2="343.5" stroke="#d8dee6" stroke-width="1"/><line x1="470.3" y1="358" x2="481.1" y2="363.1" stroke="#d8dee6" stroke-width="1"/><line x1="460.9" y1="376" x2="471.3" y2="382" stroke="#d8dee6" stroke-width="1"/><line x1="450" y1="393.1" x2="459.9" y2="400" stroke="#d8dee6" stroke-width="1"/><line x1="437.7" y1="409.1" x2="446.9" y2="416.8" stroke="#d8dee6" stroke-width="1"/><line x1="424" y1="424" x2="432.5" y2="432.5" stroke="#d8dee6" stroke-width="1"/><line x1="409.1" y1="437.7" x2="416.8" y2="446.9" stroke="#d8dee6" stroke-width="1"/><line x1="393.1" y1="450" x2="400" y2="459.9" stroke="#d8dee6" stroke-width="1"/><line x1="376" y1="460.9" x2="382" y2="471.3" stroke="#d8dee6" stroke-width="1"/><line x1="358" y1="470.3" x2="363.1" y2="481.1" stroke="#d8dee6" stroke-width="1"/><line x1="339.3" y1="478" x2="343.5" y2="489.3" stroke="#d8dee6" stroke-width="1"/><line x1="320" y1="484.1" x2="323.2" y2="495.7" stroke="#d8dee6" stroke-width="1"/><line x1="300.3" y1="488.5" x2="302.4" y2="500.3" stroke="#d8dee6" stroke-width="1"/><line x1="280.2" y1="491.1" x2="281.3" y2="503.1" stroke="#d8dee6" stroke-width="1"/><line x1="260" y1="492" x2="260" y2="504" stroke="#d8dee6" stroke-width="1"/><line x1="239.8" y1="491.1" x2="238.7" y2="503.1" stroke="#d8dee6" stroke-width="1"/><line x1="219.7" y1="488.5" x2="217.6" y2="500.3" stroke="#d8dee6" stroke-width="1"/><line x1="200" y1="484.1" x2="196.8" y2="495.7" stroke="#d8dee6" stroke-width="1"/><line x1="180.7" y1="478" x2="176.5" y2="489.3" stroke="#d8dee6" stroke-width="1"/><line x1="162" y1="470.3" x2="156.9" y2="481.1" stroke="#d8dee6" stroke-width="1"/><line x1="144" y1="460.9" x2="138" y2="471.3" stroke="#d8dee6" stroke-width="1"/><line x1="126.9" y1="450" x2="120" y2="459.9" stroke="#d8dee6" stroke-width="1"/><line x1="110.9" y1="437.7" x2="103.2" y2="446.9" stroke="#d8dee6" stroke-width="1"/><line x1="96" y1="424" x2="87.5" y2="432.5" stroke="#d8dee6" stroke-width="1"/><line x1="82.3" y1="409.1" x2="73.1" y2="416.8" stroke="#d8dee6" stroke-width="1"/><line x1="70" y1="393.1" x2="60.1" y2="400" stroke="#d8dee6" stroke-width="1"/><line x1="59.1" y1="376" x2="48.7" y2="382" stroke="#d8dee6" stroke-width="1"/><line x1="49.7" y1="358" x2="38.9" y2="363.1" stroke="#d8dee6" stroke-width="1"/><line x1="42" y1="339.3" x2="30.7" y2="343.5" stroke="#d8dee6" stroke-width="1"/><line x1="35.9" y1="320" x2="24.3" y2="323.2" stroke="#d8dee6" stroke-width="1"/><line x1="31.5" y1="300.3" x2="19.7" y2="302.4" stroke="#d8dee6" stroke-width="1"/><line x1="28.9" y1="280.2" x2="16.9" y2="281.3" stroke="#d8dee6" stroke-width="1"/><line x1="28" y1="260" x2="16" y2="260" stroke="#d8dee6" stroke-width="1"/><line x1="28.9" y1="239.8" x2="16.9" y2="238.7" stroke="#d8dee6" stroke-width="1"/><line x1="31.5" y1="219.7" x2="19.7" y2="217.6" stroke="#d8dee6" stroke-width="1"/><line x1="35.9" y1="200" x2="24.3" y2="196.8" stroke="#d8dee6" stroke-width="1"/><line x1="42" y1="180.7" x2="30.7" y2="176.5" stroke="#d8dee6" stroke-width="1"/><line x1="49.7" y1="162" x2="38.9" y2="156.9" stroke="#d8dee6" stroke-width="1"/><line x1="59.1" y1="144" x2="48.7" y2="138" stroke="#d8dee6" stroke-width="1"/><line x1="70" y1="126.9" x2="60.1" y2="120" stroke="#d8dee6" stroke-width="1"/><line x1="82.3" y1="110.9" x2="73.1" y2="103.2" stroke="#d8dee6" stroke-width="1"/><line x1="96" y1="96" x2="87.5" y2="87.5" stroke="#d8dee6" stroke-width="1"/><line x1="110.9" y1="82.3" x2="103.2" y2="73.1" stroke="#d8dee6" stroke-width="1"/><line x1="126.9" y1="70" x2="120" y2="60.1" stroke="#d8dee6" stroke-width="1"/><line x1="144" y1="59.1" x2="138" y2="48.7" stroke="#d8dee6" stroke-width="1"/><line x1="162" y1="49.7" x2="156.9" y2="38.9" stroke="#d8dee6" stroke-width="1"/><line x1="180.7" y1="42" x2="176.5" y2="30.7" stroke="#d8dee6" stroke-width="1"/><line x1="200" y1="35.9" x2="196.8" y2="24.3" stroke="#d8dee6" stroke-width="1"/><line x1="219.7" y1="31.5" x2="217.6" y2="19.7" stroke="#d8dee6" stroke-width="1"/><line x1="239.8" y1="28.9" x2="238.7" y2="16.9" stroke="#d8dee6" stroke-width="1"/></g>
  
  <polyline points="221.2,414.9 213.3,412.6 205.6,409.8 198.1,406.6 190.7,403.1 183.6,399.1 176.7,394.7 170,390 163.6,384.9 157.5,379.5 151.6,373.7 146.2,367.7 141,361.3 136.2,354.7 131.8,347.8 127.7,340.7 124.1,333.4 120.8,325.9 118,318.2 115.5,310.4 113.6,302.5 112,294.4 110.9,286.3 110.2,278.2 110,270 110.2,261.8 110.9,253.7 112,245.6 113.6,237.5 115.5,229.6 118,221.8 120.8,214.1 124.1,206.6 127.7,199.3 131.8,192.2 136.2,185.3 141,178.7 146.2,172.3 151.6,166.3 157.5,160.5 163.6,155.1 170,150 176.7,145.3 183.6,140.9 190.7,136.9 198.1,133.4 205.6,130.2 213.3,127.4 221.2,125.1" fill="none" stroke="#d8dee6" stroke-width="2.4" stroke-linecap="round" opacity=".8"/><path d="M0 0 C9.4 -8.2 18.8 -4.9 23.6 0 C18.8 4.9 9.4 8.2 0 0 Z"
        transform="translate(170.9 390.7) rotate(92.4)" fill="#d8dee6" opacity="0.8"/><path d="M0 0 C9.4 -8.2 18.8 -4.9 23.6 0 C18.8 4.9 9.4 8.2 0 0 Z"
        transform="translate(170.9 390.7) rotate(131.5)" fill="#d8dee6" opacity="0.45"/><path d="M0 0 C10.6 -9.3 21.2 -5.6 26.6 0 C21.2 5.6 10.6 9.3 0 0 Z"
        transform="translate(133 349.8) rotate(113.9)" fill="#d8dee6" opacity="0.8"/><path d="M0 0 C10.6 -9.3 21.2 -5.6 26.6 0 C21.2 5.6 10.6 9.3 0 0 Z"
        transform="translate(133 349.8) rotate(153)" fill="#d8dee6" opacity="0.45"/><path d="M0 0 C11.8 -10.3 23.6 -6.2 29.6 0 C23.6 6.2 11.8 10.3 0 0 Z"
        transform="translate(112.6 297.9) rotate(135.3)" fill="#d8dee6" opacity="0.8"/><path d="M0 0 C11.8 -10.3 23.6 -6.2 29.6 0 C23.6 6.2 11.8 10.3 0 0 Z"
        transform="translate(112.6 297.9) rotate(174.4)" fill="#d8dee6" opacity="0.45"/><path d="M0 0 C11 -9.6 22 -5.8 27.5 0 C22 5.8 11 9.6 0 0 Z"
        transform="translate(112.6 242.1) rotate(156.7)" fill="#d8dee6" opacity="0.8"/><path d="M0 0 C11 -9.6 22 -5.8 27.5 0 C22 5.8 11 9.6 0 0 Z"
        transform="translate(112.6 242.1) rotate(195.8)" fill="#d8dee6" opacity="0.45"/><path d="M0 0 C9.8 -8.6 19.6 -5.1 24.5 0 C19.6 5.1 9.8 8.6 0 0 Z"
        transform="translate(133 190.2) rotate(178.1)" fill="#d8dee6" opacity="0.8"/><path d="M0 0 C9.8 -8.6 19.6 -5.1 24.5 0 C19.6 5.1 9.8 8.6 0 0 Z"
        transform="translate(133 190.2) rotate(217.2)" fill="#d8dee6" opacity="0.45"/><path d="M0 0 C8.6 -7.5 17.2 -4.5 21.5 0 C17.2 4.5 8.6 7.5 0 0 Z"
        transform="translate(170.9 149.3) rotate(199.6)" fill="#d8dee6" opacity="0.8"/><path d="M0 0 C8.6 -7.5 17.2 -4.5 21.5 0 C17.2 4.5 8.6 7.5 0 0 Z"
        transform="translate(170.9 149.3) rotate(238.7)" fill="#d8dee6" opacity="0.45"/>
  <polyline points="298.8,414.9 306.7,412.6 314.4,409.8 321.9,406.6 329.3,403.1 336.4,399.1 343.3,394.7 350,390 356.4,384.9 362.5,379.5 368.4,373.7 373.8,367.7 379,361.3 383.8,354.7 388.2,347.8 392.3,340.7 395.9,333.4 399.2,325.9 402,318.2 404.5,310.4 406.4,302.5 408,294.4 409.1,286.3 409.8,278.2 410,270 409.8,261.8 409.1,253.7 408,245.6 406.4,237.5 404.5,229.6 402,221.8 399.2,214.1 395.9,206.6 392.3,199.3 388.2,192.2 383.8,185.3 379,178.7 373.8,172.3 368.4,166.3 362.5,160.5 356.4,155.1 350,150 343.3,145.3 336.4,140.9 329.3,136.9 321.9,133.4 314.4,130.2 306.7,127.4 298.8,125.1" fill="none" stroke="#d8dee6" stroke-width="2.4" stroke-linecap="round" opacity=".8"/><path d="M0 0 C9.4 -8.2 18.8 -4.9 23.6 0 C18.8 4.9 9.4 8.2 0 0 Z"
        transform="translate(349.1 390.7) rotate(87.6)" fill="#d8dee6" opacity="0.8"/><path d="M0 0 C9.4 -8.2 18.8 -4.9 23.6 0 C18.8 4.9 9.4 8.2 0 0 Z"
        transform="translate(349.1 390.7) rotate(48.5)" fill="#d8dee6" opacity="0.45"/><path d="M0 0 C10.6 -9.3 21.2 -5.6 26.6 0 C21.2 5.6 10.6 9.3 0 0 Z"
        transform="translate(387 349.8) rotate(66.1)" fill="#d8dee6" opacity="0.8"/><path d="M0 0 C10.6 -9.3 21.2 -5.6 26.6 0 C21.2 5.6 10.6 9.3 0 0 Z"
        transform="translate(387 349.8) rotate(27)" fill="#d8dee6" opacity="0.45"/><path d="M0 0 C11.8 -10.3 23.6 -6.2 29.6 0 C23.6 6.2 11.8 10.3 0 0 Z"
        transform="translate(407.4 297.9) rotate(44.7)" fill="#d8dee6" opacity="0.8"/><path d="M0 0 C11.8 -10.3 23.6 -6.2 29.6 0 C23.6 6.2 11.8 10.3 0 0 Z"
        transform="translate(407.4 297.9) rotate(5.6)" fill="#d8dee6" opacity="0.45"/><path d="M0 0 C11 -9.6 22 -5.8 27.5 0 C22 5.8 11 9.6 0 0 Z"
        transform="translate(407.4 242.1) rotate(23.3)" fill="#d8dee6" opacity="0.8"/><path d="M0 0 C11 -9.6 22 -5.8 27.5 0 C22 5.8 11 9.6 0 0 Z"
        transform="translate(407.4 242.1) rotate(-15.8)" fill="#d8dee6" opacity="0.45"/><path d="M0 0 C9.8 -8.6 19.6 -5.1 24.5 0 C19.6 5.1 9.8 8.6 0 0 Z"
        transform="translate(387 190.2) rotate(1.9)" fill="#d8dee6" opacity="0.8"/><path d="M0 0 C9.8 -8.6 19.6 -5.1 24.5 0 C19.6 5.1 9.8 8.6 0 0 Z"
        transform="translate(387 190.2) rotate(-37.2)" fill="#d8dee6" opacity="0.45"/><path d="M0 0 C8.6 -7.5 17.2 -4.5 21.5 0 C17.2 4.5 8.6 7.5 0 0 Z"
        transform="translate(349.1 149.3) rotate(-19.6)" fill="#d8dee6" opacity="0.8"/><path d="M0 0 C8.6 -7.5 17.2 -4.5 21.5 0 C17.2 4.5 8.6 7.5 0 0 Z"
        transform="translate(349.1 149.3) rotate(-58.7)" fill="#d8dee6" opacity="0.45"/>
  <path d="M182 290 L206 218 L234 264 L260 198 L286 264 L314 218 L338 290 Z" fill="#d8dee6" opacity=".14"/>
  <path d="M182 290 L206 218 L234 264 L260 198 L286 264 L314 218 L338 290 Z" fill="none" stroke="#d8dee6" stroke-width="3" stroke-linejoin="round"/>
  <path d="M178 290 H342" stroke="#d8dee6" stroke-width="4.5" stroke-linecap="round"/>
  <path d="M190 304 H330" stroke="#d8dee6" stroke-width="1.6" opacity=".55"/>
  <circle cx="206" cy="210" r="5.5" fill="#d8dee6"/><circle cx="260" cy="210" r="5.5" fill="#d8dee6"/><circle cx="314" cy="210" r="5.5" fill="#d8dee6"/>
  <circle cx="260" cy="270" r="7" fill="none" stroke="#d8dee6" stroke-width="2" opacity=".8"/>
  <path d="M260 373L268.8 400.1L245.7 383.4L274.3 383.4L251.2 400.1Z" fill="none" stroke="#d8dee6" stroke-width="1.8" opacity=".7"/>

  <g opacity=".5"><path d="M26 26 h54 M26 26 v54 M26 26 l22 22" stroke="#d8dee6" stroke-width="1.4" fill="none"/><path d="M494 26 h-54 M494 26 v54 M494 26 l-22 22" stroke="#d8dee6" stroke-width="1.4" fill="none"/><path d="M26 494 h54 M26 494 v-54 M26 494 l22 -22" stroke="#d8dee6" stroke-width="1.4" fill="none"/><path d="M494 494 h-54 M494 494 v-54 M494 494 l-22 -22" stroke="#d8dee6" stroke-width="1.4" fill="none"/></g>
  <rect x="14" y="14" width="492" height="492" fill="none" stroke="#d8dee6" stroke-opacity=".28"/>
  <rect width="520" height="520" fill="url(#sheen)"/></svg>